<svg xmlns="http://www.w3.org/2000/svg" width="189.212" height="54.176" viewBox="0 0 468 134">
  <defs>
    <style>
      .cls-1 {
        fill: #00364f;
      }

      .cls-1, .cls-2 {
        fill-rule: evenodd;
      }

      .cls-2 {
        fill: #014666;
        stroke: #000;
        stroke-width: 1px;
      }
    </style>
  </defs>
  <path id="Home_Staging_Decor" data-name="Home Staging &amp; Decor" class="cls-1" d="M44.506,101.949a2.708,2.708,0,0,0-.418-0.74,2.5,2.5,0,0,0-.652-0.579,1.618,1.618,0,0,0-.864-0.234,1.061,1.061,0,0,0-.593.19,2.919,2.919,0,0,0-.527.454,3.617,3.617,0,0,0-.418.55,2.059,2.059,0,0,0-.234.49q-0.161.572-.271,1.062c-0.073.328-.139,0.645-0.2,0.953s-0.11.608-.154,0.9-0.09.591-.139,0.894q-0.015.132-.1,0.557t-0.2,1q-0.11.579-.242,1.223t-0.242,1.209q-0.11.564-.183,0.974a4.377,4.377,0,0,0-.073.5,5.112,5.112,0,0,1-.659.073q-0.322.015-.645,0.015-0.806,0-1.575-.022t-1.56-.066q-0.249-.015-0.784-0.066t-1.216-.125q-0.681-.072-1.435-0.168t-1.443-.2q-0.689-.1-1.238-0.219a5.886,5.886,0,0,1-.813-0.22q0.058-.556.161-1.216t0.256-1.355q0.154-.7.373-1.406T28.92,105q0.088-.2.19-0.432t0.2-.476a4.686,4.686,0,0,0,.161-0.505,1.97,1.97,0,0,0,.066-0.491,2.4,2.4,0,0,0-.051-0.483,1.525,1.525,0,0,0-.176-0.462,0.975,0.975,0,0,0-.344-0.344,1.1,1.1,0,0,0-.571-0.132c-0.117,0-.249.008-0.4,0.022s-0.3.037-.447,0.066-0.3.061-.432,0.095a2.894,2.894,0,0,0-.352.11,1.563,1.563,0,0,0-.674.769,10.576,10.576,0,0,0-.659,1.619q-0.322.981-.63,2.212t-0.571,2.556q-0.264,1.326-.5,2.651t-0.41,2.491q-0.176,1.164-.286,2.08t-0.154,1.413q-0.044.454-.1,1.033t-0.1,1.2q-0.044.623-.081,1.275t-0.037,1.267q0,0.526.029,1a4.044,4.044,0,0,0,.132.835,3.657,3.657,0,0,0,.249.63,2.31,2.31,0,0,0,.41.578,2.008,2.008,0,0,0,.593.418,1.833,1.833,0,0,0,.784.161,2.257,2.257,0,0,0,.63-0.1,2.647,2.647,0,0,0,.659-0.293,1.824,1.824,0,0,0,.513-0.468,1.037,1.037,0,0,0,.205-0.63c0-.049,0-0.1-0.007-0.161a0.568,0.568,0,0,0-.037-0.162,13.081,13.081,0,0,1-.161-1.435q-0.044-.747-0.044-1.494,0-.851.037-1.663t0.037-1.575q0-.644.029-1.193t0.073-1.048q0.044-.5.11-0.952c0.044-.3.09-0.605,0.139-0.908a24.352,24.352,0,0,0,3.245.344q1.662,0.066,3.259.066c0.088,0,.264,0,0.527-0.007l0.923-.015,1.121-.015c0.4,0,.769-0.012,1.121-0.022s0.659-.017.923-0.022,0.439-.012.527-0.022c0.01,0.118.012,0.284,0.007,0.5s-0.012.442-.022,0.681-0.02.466-.029,0.681-0.015.376-.015,0.483v0.652c0,0.269,0,.554.007,0.857s0.007,0.618.007,0.945,0,0.635.007,0.923,0.007,0.549.007,0.783v0.542q0,0.44.051,1.011a4.841,4.841,0,0,0,.22,1.084,2.386,2.386,0,0,0,.483.864,1.091,1.091,0,0,0,.857.352,3.5,3.5,0,0,0,.981-0.132,2.334,2.334,0,0,0,.791-0.395,1.813,1.813,0,0,0,.527-0.674,2.321,2.321,0,0,0,.191-0.982,7.254,7.254,0,0,0-.066-0.981q-0.066-.483-0.147-1t-0.146-1.07a10.221,10.221,0,0,1-.066-1.2q0-.674.022-1.362t0.022-1.2q0-.645.044-1.37t0.117-1.465q0.073-.739.191-1.457t0.249-1.333q0.029-.132.125-0.528t0.22-.915q0.124-.521.264-1.1t0.264-1.084q0.124-.506.212-0.871c0.059-.244.1-0.4,0.117-0.454q0.19-.66.373-1.311a4.368,4.368,0,0,0,.183-1.165A2.122,2.122,0,0,0,44.506,101.949Zm23.829,5.683a8.615,8.615,0,0,0-.454-1.362,8.445,8.445,0,0,0-1.077-1.809,7.265,7.265,0,0,0-1.428-1.392,6.427,6.427,0,0,0-1.706-.893,5.835,5.835,0,0,0-1.912-.315,4.881,4.881,0,0,0-1.655.278,2.927,2.927,0,0,0-1.333,1,3.436,3.436,0,0,0-.571.059,6.8,6.8,0,0,0-.7.161q-0.359.1-.718,0.234a5.227,5.227,0,0,0-.637.279,10.07,10.07,0,0,0-1.465.937,19.531,19.531,0,0,0-1.56,1.318q-0.784.733-1.553,1.568t-1.443,1.7a20.156,20.156,0,0,0-1.209,1.721,13.106,13.106,0,0,0-.872,1.619q-0.278.645-.491,1.238a12.132,12.132,0,0,0-.359,1.186,10.831,10.831,0,0,0-.227,1.223,10.634,10.634,0,0,0-.081,1.348,8.763,8.763,0,0,0,.4,2.673,7.166,7.166,0,0,0,1.143,2.227,5.539,5.539,0,0,0,1.794,1.523,4.891,4.891,0,0,0,2.344.564,7.186,7.186,0,0,0,1.5-.19q0.871-.191,1.772-0.476t1.736-.637a13.918,13.918,0,0,0,1.406-.674q1.113-.645,2.256-1.465a21.848,21.848,0,0,0,2.2-1.809,20.533,20.533,0,0,0,1.978-2.139,15.554,15.554,0,0,0,1.611-2.446,13.292,13.292,0,0,0,1.084-2.747,11.529,11.529,0,0,0,.4-3.047A6.078,6.078,0,0,0,68.336,107.632Zm-5.691-2.673a3.63,3.63,0,0,1,.806.608,5.45,5.45,0,0,1,.725.893,7.393,7.393,0,0,1,.593,1.1,7.2,7.2,0,0,1,.4,1.194,5.09,5.09,0,0,1,.146,1.194,3.22,3.22,0,0,1-.081.644q-0.081.381-.212,0.813c-0.088.288-.188,0.589-0.3,0.9s-0.227.61-.344,0.894-0.234.544-.352,0.783-0.225.437-.322,0.594a12.4,12.4,0,0,1-1.348,1.56,20.86,20.86,0,0,1-1.714,1.516,21.748,21.748,0,0,1-1.934,1.369,18.224,18.224,0,0,1-2.014,1.106,13.1,13.1,0,0,1-1.956.74,6.488,6.488,0,0,1-1.773.271,1.859,1.859,0,0,1-1.018-.315,3.473,3.473,0,0,1-.879-0.82,4.292,4.292,0,0,1-.623-1.143,3.689,3.689,0,0,1-.234-1.282,7.443,7.443,0,0,1,.2-1.706,12.3,12.3,0,0,1,.491-1.6,9.221,9.221,0,0,1,.732-1.414q0.5-.813,1.143-1.684t1.4-1.721a17.707,17.707,0,0,1,1.509-1.517,9.524,9.524,0,0,1,1.465-1.083,2.565,2.565,0,0,1,1.267-.418,1.8,1.8,0,0,1,.374.029l0.242,0.059c0.078,0.02.171,0.039,0.278,0.059a3,3,0,0,0,.483.029,1.111,1.111,0,0,0,.82-0.293,2.768,2.768,0,0,0,.483-0.645q0.19-.351.337-0.644a0.436,0.436,0,0,1,.381-0.293A1.726,1.726,0,0,1,62.645,104.959Zm34.516-2.586a0.958,0.958,0,0,0-.2-0.512,2.906,2.906,0,0,0-.5-0.557,3.317,3.317,0,0,0-.652-0.447,1.436,1.436,0,0,0-.659-0.183,0.868,0.868,0,0,0-.776.308q-0.176.249-.549,0.74t-0.776,1.032c-0.269.362-.525,0.7-0.769,1.026s-0.42.561-.527,0.717c-0.088.1-.161,0.184-0.22,0.257s-0.142.173-.249,0.3-0.264.34-.5,0.637l-0.806,1.026q-0.454.579-.967,1.223l-0.974,1.223q-0.461.579-.813,1.011c-0.234.288-.405,0.49-0.513,0.608a7.673,7.673,0,0,0-.784,1.018q-0.344.534-.681,1.135-0.381.689-.7,1.164a3.416,3.416,0,0,1-.7.784,26.569,26.569,0,0,1-1.648-2.966A25.778,25.778,0,0,1,81,108.892q-0.117-.308-0.22-0.564a3.73,3.73,0,0,1-.176-0.593q-0.264-1.216-.513-2.08a4.108,4.108,0,0,0-.681-1.414,2.547,2.547,0,0,0-1.142-.813,5.578,5.578,0,0,0-1.9-.264,1.083,1.083,0,0,0-.71.249,2.242,2.242,0,0,0-.513.623,4.48,4.48,0,0,0-.359.82q-0.147.447-.234,0.843a8.844,8.844,0,0,0-.176,1.069q-0.176.719-.388,1.516t-0.425,1.6q-0.212.805-.432,1.6t-0.425,1.523q-0.117.426-.3,1.106t-0.4,1.45q-0.213.77-.418,1.568t-0.373,1.487q-0.169.689-.278,1.179a3.8,3.8,0,0,0-.11.652c0,0.351,0,.642.007,0.871s0.015,0.423.029,0.579,0.032,0.285.051,0.388a1.288,1.288,0,0,0,.088.286,2.809,2.809,0,0,0,.352.644,1.322,1.322,0,0,0,.447.381,1.828,1.828,0,0,0,.608.176,6.9,6.9,0,0,0,.835.044,1.115,1.115,0,0,0,.644-0.213,2.527,2.527,0,0,0,.542-0.5,2.493,2.493,0,0,0,.366-0.615,1.494,1.494,0,0,0,.132-0.542q0-.264.015-0.747c0.01-.323.017-0.657,0.022-1s0.012-.674.022-0.981,0.015-.535.015-0.681A9.181,9.181,0,0,1,75.3,116.3q0.014-.074.1-0.447t0.212-.945q0.124-.57.278-1.281l0.315-1.458q0.161-.747.322-1.465l0.293-1.3q0.132-.587.22-0.982t0.117-.5q0.161,0.572.293,1t0.264,0.835q0.132,0.411.286,0.879t0.359,1.128q0.293,0.791.63,1.553t0.718,1.45q0.176,0.322.41,0.732t0.527,0.909c0.185,0.3.349,0.591,0.491,0.864a3.627,3.627,0,0,0,.52.754,3.478,3.478,0,0,0,.784.637,5.661,5.661,0,0,0,1.267.542,4.389,4.389,0,0,0,2.256-1.728,1.833,1.833,0,0,0,.205-0.264c0.078-.117.156-0.236,0.234-0.359s0.149-.231.212-0.329a1.42,1.42,0,0,1,.139-0.191q0.557-.791,1.069-1.538t1.069-1.508q0.249-.338.608-0.821t0.762-1.033q0.4-.549.835-1.12l0.82-1.084,0.7-.93q0.315-.419.491-0.637-0.117.643-.271,1.64t-0.322,2.146Q92.355,112.6,92.2,113.8t-0.278,2.271q-0.124,1.07-.205,1.9t-0.081,1.245v0.513a16.563,16.563,0,0,0,.124,2.014,7.85,7.85,0,0,0,.439,1.846,3.6,3.6,0,0,0,.872,1.355,1.965,1.965,0,0,0,1.406.527,1.93,1.93,0,0,0,.828-0.19,2.823,2.823,0,0,0,.718-0.484,2.578,2.578,0,0,0,.505-0.637,1.355,1.355,0,0,0,.19-0.652,0.945,0.945,0,0,0-.234-0.674,4.177,4.177,0,0,0-.762-0.586,1.045,1.045,0,0,0-.154-0.095,0.439,0.439,0,0,1-.124-0.095c-0.049-.391-0.086-0.793-0.11-1.209s-0.044-.822-0.059-1.223-0.022-.776-0.022-1.128v-0.923a27.416,27.416,0,0,1,.147-2.871q0.146-1.39.293-2.636,0.1-.879.183-1.634t0.139-1.45q0.058-.7.088-1.34t0.029-1.3a5.279,5.279,0,0,1,.037-0.666q0.036-.287.1-0.564t0.139-.586c0.054-.2.11-0.445,0.168-0.718a2.455,2.455,0,0,1,.2-0.6c0.073-.136.139-0.249,0.2-0.337a2.816,2.816,0,0,0,.146-0.241,0.725,0.725,0,0,0,.059-0.33Zm25.06,0.7a1.961,1.961,0,0,0-.373-0.477,1.845,1.845,0,0,0-.506-0.336,1.351,1.351,0,0,0-.556-0.125,5.173,5.173,0,0,0-1.084.11q-0.513.11-1.018,0.264l-1.033.315a9.152,9.152,0,0,1-1.128.263q-1.349.221-2.659,0.315t-2.6.095q-0.689,0-1.267-.014t-0.915-.015a3.129,3.129,0,0,1-.484-0.059c-0.225-.038-0.461-0.082-0.71-0.131s-0.489-.093-0.718-0.132a3.4,3.4,0,0,0-.5-0.059,2.371,2.371,0,0,0-.667.117,4.936,4.936,0,0,0-.769.308,5.5,5.5,0,0,0-.7.417,1.592,1.592,0,0,0-.454.447,3.547,3.547,0,0,0-.388.828,2.525,2.525,0,0,0-.125.74,2.185,2.185,0,0,0,.029.307,2.035,2.035,0,0,1,.03.293c0,0.079-.008.249-0.022,0.513s-0.037.576-.066,0.937-0.059.747-.088,1.158-0.056.8-.081,1.157-0.046.674-.066,0.937-0.034.43-.044,0.5q-0.074.924-.212,1.722t-0.308,1.6q-0.168.806-.358,1.655t-0.4,1.875q-0.206,1.069-.373,1.838a6.55,6.55,0,0,0-.169,1.4,5.428,5.428,0,0,0,.139,1.341,2.153,2.153,0,0,0,.4.849,1.4,1.4,0,0,0,.659.44,3.115,3.115,0,0,0,.923.124h0.029a3.1,3.1,0,0,0,.63-0.073c0.235-.049.481-0.108,0.74-0.176s0.515-.139.769-0.212a6.609,6.609,0,0,1,.718-0.169q0.351-.074,1.084-0.168l1.7-.22q0.968-.124,2.095-0.256l2.256-.264q1.566-.206,2.871-0.344t2.592-.388a2.151,2.151,0,0,0,.733-0.279,3.058,3.058,0,0,0,.579-0.447,2.36,2.36,0,0,0,.38-0.483,0.847,0.847,0,0,0,.14-0.373,1.9,1.9,0,0,0-.132-0.711,1.77,1.77,0,0,0-.352-0.564,1.618,1.618,0,0,0-.5-0.366,1.4,1.4,0,0,0-.594-0.132,2.336,2.336,0,0,0-.52.059,4.694,4.694,0,0,0-.5.146c-0.166.059-.329,0.12-0.491,0.183a3.753,3.753,0,0,1-.476.154,6.991,6.991,0,0,1-.842.169c-0.308.043-.615,0.083-0.923,0.117s-0.605.066-.893,0.095-0.535.059-.74,0.088q-0.587.087-1.091,0.146t-1.1.11l-1.333.117q-0.739.066-1.78,0.154c-0.264.029-.544,0.056-0.842,0.081s-0.593.046-.886,0.066-0.574.034-.843,0.044-0.5.014-.71,0.014c0.009-.117.029-0.268,0.058-0.454s0.066-.388.11-0.608,0.093-.451.147-0.7,0.105-.483.154-0.717a17.336,17.336,0,0,0,.307-1.714,12.653,12.653,0,0,1,.279-1.524q0.425-.117.805-0.19a4.415,4.415,0,0,1,.835-0.073q0.279,0,.93-0.03l1.487-.066q0.835-.036,1.765-0.095t1.765-.124q0.835-.066,1.473-0.125a7.526,7.526,0,0,0,.886-0.117c0.185-.039.408-0.09,0.666-0.154a3.265,3.265,0,0,0,.74-0.278,2.006,2.006,0,0,0,.593-0.461,1.057,1.057,0,0,0,.242-0.718,3.878,3.878,0,0,0-.059-0.681,1.8,1.8,0,0,0-.2-0.586,1.1,1.1,0,0,0-.41-0.411,1.3,1.3,0,0,0-.659-0.153,4.963,4.963,0,0,0-.549.029,3.371,3.371,0,0,0-.5.095,4.437,4.437,0,0,0-.5.169q-0.257.1-.55,0.234a7.162,7.162,0,0,1-.842.132q-0.535.058-1.1,0.1c-0.376.03-.73,0.054-1.062,0.074s-0.576.039-.732,0.058q-0.469.045-1.179,0.095t-1.428.052q-0.5,0-1.033-.015c-0.357-.01-0.667-0.029-0.93-0.059,0.048-.3.088-0.676,0.117-1.12s0.058-.906.088-1.384,0.056-.948.08-1.407,0.052-.849.081-1.172q0.366,0.03.762,0.03h3.032q0.659,0,1.611-.044t2.1-.154q1.151-.11,2.439-0.286t2.637-.439q0.513-.1.871-0.191a3.5,3.5,0,0,0,.74-0.278,1.055,1.055,0,0,0,.366-0.3,3.006,3.006,0,0,0,.315-0.462,2.838,2.838,0,0,0,.22-0.49,1.3,1.3,0,0,0,.081-0.388A1.1,1.1,0,0,0,122.22,103.077Zm28.345,1.45a4.14,4.14,0,0,0-1.34-1.084h0.015a3.578,3.578,0,0,0-.835-0.315q-0.528-.14-1.106-0.235t-1.128-.146q-0.55-.051-0.916-0.051a13.193,13.193,0,0,0-2.424.234,16.994,16.994,0,0,0-2.454.652,14.6,14.6,0,0,0-2.263,1,10.919,10.919,0,0,0-1.868,1.282,6.064,6.064,0,0,0-1.274,1.487,3.145,3.145,0,0,0-.469,1.626,5.434,5.434,0,0,0,1.465,3.75,10.588,10.588,0,0,0,3.442,2.241H139.4a35.554,35.554,0,0,0,3.926,1.3q0.57,0.16,1.333.41a7.487,7.487,0,0,1,1.538.718v-0.015a0.878,0.878,0,0,1,.527.674,1.118,1.118,0,0,1-.183.6,3.173,3.173,0,0,1-.454.564,4.742,4.742,0,0,1-.586.5q-0.315.228-.579,0.4a12.707,12.707,0,0,1-1.377.762,14.751,14.751,0,0,1-1.6.652,12.97,12.97,0,0,1-1.692.454,8.575,8.575,0,0,1-1.648.168,7.684,7.684,0,0,1-1.326-.095c-0.357-.063-0.669-0.132-0.937-0.2l-0.726-.2a2.625,2.625,0,0,0-.688-0.087,0.685,0.685,0,0,0-.491.227,2.273,2.273,0,0,0-.4.542,2.959,2.959,0,0,0-.257.651,2.361,2.361,0,0,0-.087.572,0.723,0.723,0,0,0,.219.5,2.528,2.528,0,0,0,.572.439,4.765,4.765,0,0,0,.8.366c0.3,0.108.595,0.2,0.893,0.279s0.581,0.139.85,0.183a4.338,4.338,0,0,0,.681.066,10.834,10.834,0,0,0,1.179-.073q0.653-.074,1.355-0.206c0.469-.087.94-0.193,1.414-0.314s0.925-.252,1.355-0.389a13.2,13.2,0,0,0,1.348-.512q0.658-.294,1.274-0.63t1.15-.689q0.534-.351.959-0.688l-0.014.014a8.618,8.618,0,0,0,.842-0.725,7.738,7.738,0,0,0,.828-0.944,5.694,5.694,0,0,0,.63-1.077,2.807,2.807,0,0,0,.249-1.135,3.615,3.615,0,0,0-1.641-2.989,14.809,14.809,0,0,0-5.039-2.08c-0.02-.009-0.095-0.036-0.227-0.08l-0.484-.161q-0.285-.1-0.615-0.213t-0.622-.212q-0.294-.1-0.5-0.169l-0.249-.088a3.916,3.916,0,0,1-1.114-.5,5.331,5.331,0,0,1-.93-0.762,3.907,3.907,0,0,1-.637-0.849,1.677,1.677,0,0,1-.234-0.784l-0.015.029a1.837,1.837,0,0,1,.373-0.827,4.044,4.044,0,0,1,.725-0.718,6.5,6.5,0,0,1,.916-0.593,9.088,9.088,0,0,1,.93-0.44,10.778,10.778,0,0,1,1.209-.41,10.622,10.622,0,0,1,1.172-.249,11.314,11.314,0,0,1,1.179-.117q0.6-.03,1.23-0.029a3.991,3.991,0,0,1,.586.051,4.441,4.441,0,0,1,.667.154,2.65,2.65,0,0,1,.593.263,0.885,0.885,0,0,1,.366.4,2.751,2.751,0,0,1,.169.74,10.082,10.082,0,0,1,.051,1.091,3,3,0,0,0,2.212-.557h-0.015a1.646,1.646,0,0,0,.286-0.461c0.083-.191.158-0.391,0.227-0.6a4.6,4.6,0,0,0,.154-0.608,2.973,2.973,0,0,0,.051-0.5A2.017,2.017,0,0,0,150.565,104.527Zm24.643-1.231a0.833,0.833,0,0,0-.345-0.4,1.262,1.262,0,0,0-.556-0.154c-0.22-.015-0.471-0.022-0.755-0.022-0.244.068-.446,0.13-0.607,0.183s-0.32.1-.477,0.147-0.339.09-.549,0.139-0.491.107-.842,0.176q-1.392.262-2.952,0.542t-3.259.512c-0.2.029-.471,0.069-0.828,0.117l-1.2.162q-0.666.087-1.4,0.175t-1.428.161q-0.7.073-1.282,0.118c-0.39.029-.708,0.044-0.952,0.044-0.342,0-.644.005-0.908,0.014s-0.484.015-.659,0.015a2.842,2.842,0,0,1-.374-0.022c-0.112-.015-0.222-0.032-0.329-0.051-0.215-.049-0.494-0.118-0.835-0.2a4.159,4.159,0,0,0-1.04-.132,0.858,0.858,0,0,0-.542.212,2.434,2.434,0,0,0-.469.505,2.916,2.916,0,0,0-.322.586,1.341,1.341,0,0,0-.118.469,1.482,1.482,0,0,0,.887,1.458,5.96,5.96,0,0,0,2.482.417c0.147,0,.393-0.009.74-0.029l1.194-.066q0.673-.036,1.421-0.088l1.414-.1q0.666-.043,1.164-0.081t0.674-.036q-0.089.556-.161,1.333t-0.161,1.465c0,0.048-.032.271-0.1,0.666s-0.141.879-.234,1.45-0.193,1.184-.3,1.839-0.208,1.267-.3,1.838-0.168,1.052-.227,1.443-0.092.61-.1,0.659q-0.132.981-.293,1.992a12.486,12.486,0,0,0-.161,1.978,1.958,1.958,0,0,0,.154.82,1.4,1.4,0,0,0,.432.549,1.781,1.781,0,0,0,.674.308,3.707,3.707,0,0,0,.864.095,3.577,3.577,0,0,0,.615-0.051,5.743,5.743,0,0,0,.776-0.212,1.511,1.511,0,0,0,.154-0.462c0.054-.239.105-0.513,0.154-0.82s0.09-.623.125-0.945,0.056-.6.065-0.85c0.02-.429.044-0.857,0.074-1.281s0.058-.843.088-1.253c0.019-.224.044-0.513,0.073-0.864s0.063-.735.1-1.15,0.083-.845.132-1.289,0.095-.872.139-1.282,0.088-.786.132-1.128,0.086-.62.125-0.835q0.2-1.157.351-2.365t0.337-2.234c0.43-.068.821-0.13,1.172-0.183s0.684-.108,1-0.162l0.894-.153q0.425-.074.864-0.161,1.186-.22,2.139-0.469t1.875-.571a2.9,2.9,0,0,0,1.281-.806,1.5,1.5,0,0,0,.418-0.938A1.9,1.9,0,0,0,175.208,103.3Zm4.874,12.364q-0.849.087-1.684,0.161t-1.641.117q0.366-.66.8-1.348t0.879-1.384q0.447-.7.894-1.362t0.842-1.267c0.185-.284.381-0.6,0.586-0.96s0.41-.718.615-1.084,0.408-.73.608-1.091,0.393-.689.579-0.982q0.117,1.583.351,3.208t0.5,3c0.03,0.137.066,0.3,0.11,0.491s0.09,0.391.139,0.6l0.147,0.629c0.049,0.211.093,0.4,0.132,0.579a6.957,6.957,0,0,1-.762.2q-0.454.094-.982,0.183t-1.083.161c-0.372.049-.718,0.1-1.041,0.147h0.015Zm12.239,6.6a3.31,3.31,0,0,0-.286-0.4c-0.117-.141-0.247-0.288-0.388-0.439s-0.278-.3-0.41-0.432-0.254-.259-0.366-0.367-0.2-.19-0.257-0.249a7.626,7.626,0,0,1-.666-0.886q-0.33-.505-0.623-1.033-0.132-.234-0.219-0.424c-0.059-.127-0.118-0.252-0.176-0.374l-0.183-.381c-0.064-.132-0.14-0.285-0.227-0.461a7.952,7.952,0,0,0,.952-0.264,4.064,4.064,0,0,0,.842-0.395,2.17,2.17,0,0,0,.6-0.542,1.157,1.157,0,0,0,.227-0.7,2.182,2.182,0,0,0-.059-0.563,0.511,0.511,0,0,0-.256-0.323,1.4,1.4,0,0,0-.55-0.139q-0.351-.029-0.952-0.029a3.855,3.855,0,0,0-.8.095q-0.44.1-1.1,0.212a19.153,19.153,0,0,1-.667-1.889q-0.3-1.011-.549-1.992-0.219-.866-0.388-1.8l-0.33-1.839q-0.16-.9-0.337-1.713a9.988,9.988,0,0,0-.41-1.429,3.4,3.4,0,0,0-.542-0.981,0.942,0.942,0,0,0-.747-0.366,2.683,2.683,0,0,0-1.509.388,2.6,2.6,0,0,0-.922,1.135,11.478,11.478,0,0,1-.865,1.568q-0.483.732-1,1.42c-0.185.254-.349,0.479-0.49,0.674l-0.4.557c-0.127.176-.249,0.351-0.367,0.527s-0.244.371-.38,0.586q-1.128,1.743-2.329,3.523t-2.476,3.391q-0.043.045-.344,0.432t-0.74.945q-0.44.557-.938,1.2t-0.93,1.2q-0.432.556-.725,0.93c-0.195.249-.3,0.388-0.322,0.417a9.045,9.045,0,0,0-.63.989,1.751,1.751,0,0,0-.249.623,1.037,1.037,0,0,0,.19.534,3.119,3.119,0,0,0,.462.564,2.973,2.973,0,0,0,.586.447,1.152,1.152,0,0,0,.564.183,1.959,1.959,0,0,0,.769-0.146,2.559,2.559,0,0,0,.622-0.374,3.212,3.212,0,0,0,.5-0.505q0.221-.279.4-0.542,0.7-.952,1.362-1.839t1.289-1.692q0.322-.087,1.092-0.219t1.765-.286q1-.155,2.116-0.308l2.161-.293q1.04-.138,1.9-0.241t1.333-.132c0.186,0.283.405,0.642,0.66,1.077s0.532,0.9.835,1.384,0.622,0.976.959,1.465a12.434,12.434,0,0,0,1.047,1.325,5.9,5.9,0,0,0,1.1.96,2.013,2.013,0,0,0,1.113.366,1.555,1.555,0,0,0,.7-0.161,1.953,1.953,0,0,0,.938-1.018,1.781,1.781,0,0,0,.132-0.667A0.626,0.626,0,0,0,192.321,122.259ZM208.57,102.5a17.913,17.913,0,0,0-3.794,1.67,20.316,20.316,0,0,0-3.406,2.5,22.456,22.456,0,0,0-2.849,3.113,15.411,15.411,0,0,0-1.37,2.189,15.17,15.17,0,0,0-.915,2.183,13.6,13.6,0,0,0-.513,2.08,11.881,11.881,0,0,0-.161,1.868,6.258,6.258,0,0,0,.41,2.322,4.865,4.865,0,0,0,1.172,1.757,5.156,5.156,0,0,0,1.846,1.114,7.167,7.167,0,0,0,2.431.388,9.479,9.479,0,0,0,2.146-.256,16.353,16.353,0,0,0,2.22-.689,18.6,18.6,0,0,0,2.175-1.011,22.416,22.416,0,0,0,2-1.223q-0.074.323-.205,0.806t-0.271,1.033q-0.14.549-.278,1.106t-0.249,1.025q-0.109.468-.183,0.791a2.681,2.681,0,0,0-.073.395,1.643,1.643,0,0,0,.19.784,2.134,2.134,0,0,0,.5.623,2.366,2.366,0,0,0,.689.41,2.153,2.153,0,0,0,.776.146,1.672,1.672,0,0,0,.769-0.168,1.779,1.779,0,0,0,.549-0.425,1.849,1.849,0,0,0,.33-0.542,1.754,1.754,0,0,0,.124-0.52q0.03-.556.081-1.282t0.081-1.4a9.264,9.264,0,0,1,.146-1.237q0.132-.77.33-1.634t0.424-1.721q0.228-.856.447-1.5,0.249-.747.5-1.326t0.454-1.025q0.206-.447.337-0.806a1.972,1.972,0,0,0,.132-0.681,1.085,1.085,0,0,0-.161-0.6,1.22,1.22,0,0,0-.439-0.4,2.252,2.252,0,0,0-.667-0.227,4.54,4.54,0,0,0-.828-0.073,2.283,2.283,0,0,0-1.164.256,1.461,1.461,0,0,0-.593,1.018q-0.089.411-.213,0.9c-0.083.328-.176,0.647-0.278,0.96a8.027,8.027,0,0,1-.33.849,2.006,2.006,0,0,1-.381.586,12.323,12.323,0,0,1-1.823,1.473,17.3,17.3,0,0,1-2.271,1.289,15.526,15.526,0,0,1-2.417.908,8.412,8.412,0,0,1-2.263.344,3.047,3.047,0,0,1-1.289-.234,2.079,2.079,0,0,1-.784-0.608,2.115,2.115,0,0,1-.388-0.857,4.744,4.744,0,0,1-.1-0.982,8.054,8.054,0,0,1,.329-2.241,12.344,12.344,0,0,1,.9-2.248,15.754,15.754,0,0,1,1.348-2.154,18.553,18.553,0,0,1,1.684-1.97,18.766,18.766,0,0,1,1.905-1.692,16.123,16.123,0,0,1,1.992-1.326,10.555,10.555,0,0,1,1.97-.864,6.071,6.071,0,0,1,1.824-.307,2.29,2.29,0,0,1,.827.124,1.729,1.729,0,0,1,.52.308,1.315,1.315,0,0,1,.315.41q0.11,0.227.2,0.447c0.049,0.137.1,0.266,0.146,0.388a1.183,1.183,0,0,0,.191.322,0.945,0.945,0,0,0,.308.235,1.242,1.242,0,0,0,.5.109,1.429,1.429,0,0,0,.856-0.322,3.743,3.743,0,0,0,.777-0.791,4.761,4.761,0,0,0,.564-1,2.574,2.574,0,0,0,.22-0.96,1.872,1.872,0,0,0-.271-0.959,2.57,2.57,0,0,0-.784-0.813,4.177,4.177,0,0,0-1.245-.557,6.137,6.137,0,0,0-1.656-.2A13.592,13.592,0,0,0,208.57,102.5Zm16.52,3.933c0-.254.009-0.495,0.029-0.725s0.029-.437.029-0.623a6.607,6.607,0,0,0-.058-0.959,1.916,1.916,0,0,0-.191-0.63,0.771,0.771,0,0,0-.351-0.344,1.288,1.288,0,0,0-.542-0.1c-0.127,0-.281.008-0.462,0.022a3.536,3.536,0,0,0-.542.088,3.022,3.022,0,0,0-.5.169,0.892,0.892,0,0,0-.366.278,1.632,1.632,0,0,0-.242.461,3.949,3.949,0,0,0-.154.579q-0.059.308-.1,0.659c-0.024.234-.056,0.474-0.095,0.718q-0.015.132-.088,0.527t-0.169.93q-0.095.535-.2,1.143t-0.2,1.15c-0.064.361-.117,0.676-0.161,0.945s-0.071.452-.081,0.549c-0.029.332-.054,0.642-0.073,0.93s-0.039.589-.059,0.9q-0.014.206-.08,0.637t-0.154,1.011q-0.088.579-.183,1.26t-0.183,1.406q-0.088.725-.139,1.436t-0.052,1.355a7.033,7.033,0,0,0,.469,2.973,1.727,1.727,0,0,0,1.406,1.04,2.144,2.144,0,0,0,.689-0.124,2.182,2.182,0,0,0,.674-0.374,2.06,2.06,0,0,0,.512-0.622,1.749,1.749,0,0,0,.2-0.857c0-.342-0.009-0.706-0.029-1.092s-0.049-.749-0.088-1.091c-0.029-.283-0.049-0.566-0.058-0.85s-0.015-.551-0.015-0.8c0-.44.024-0.947,0.073-1.524s0.11-1.179.183-1.809,0.147-1.262.22-1.9,0.134-1.23.183-1.787c0.02-.156.051-0.368,0.1-0.637s0.1-.559.169-0.872,0.137-.637.205-0.974,0.137-.661.2-0.974,0.127-.6.176-0.857a5.325,5.325,0,0,0,.088-0.622v-0.015Zm25.748-4.468a2.06,2.06,0,0,0-.381-0.549,1.761,1.761,0,0,0-.542-0.381,1.542,1.542,0,0,0-.644-0.139,2.108,2.108,0,0,0-.777.124,1.119,1.119,0,0,0-.5.411,2.3,2.3,0,0,0-.315.747,9.943,9.943,0,0,0-.205,1.15c-0.02.146-.046,0.373-0.081,0.681s-0.071.654-.109,1.04-0.081.788-.125,1.208-0.088.813-.132,1.179-0.08.682-.11,0.945-0.049.435-.058,0.513-0.037.283-.081,0.586-0.093.679-.146,1.128-0.115.945-.183,1.487-0.135,1.093-.2,1.655-0.127,1.108-.191,1.641-0.119,1.01-.168,1.435-0.086.774-.11,1.047-0.037.43-.037,0.469q-0.176-.293-0.388-0.644t-0.432-.7q-0.219-.352-0.417-0.667t-0.33-.52q-0.308-.483-0.7-1.047t-0.835-1.15q-0.439-.586-0.894-1.165t-0.878-1.062c-0.1-.117-0.249-0.293-0.455-0.527s-0.434-.5-0.688-0.8-0.518-.606-0.791-0.923l-0.762-.887q-0.351-.409-0.608-0.7t-0.329-.366q-0.19-.206-0.506-0.5t-0.622-.608c-0.205-.2-0.381-0.4-0.528-0.571a0.771,0.771,0,0,1-.219-0.4,2.325,2.325,0,0,0,.036-0.234c0-.059.008-0.112,0.008-0.161a1.21,1.21,0,0,0-.5-0.872,1.616,1.616,0,0,0-1-.33,1.232,1.232,0,0,0-.923.4,3.079,3.079,0,0,0-.623.989,7.058,7.058,0,0,0-.381,1.3q-0.14.711-.212,1.355-0.015.147-.132,0.674t-0.3,1.289q-0.183.762-.4,1.7t-0.461,1.912q-0.243.975-.469,1.926t-0.418,1.751q-0.191.8-.322,1.377c-0.088.386-.146,0.652-0.176,0.8q-0.176.981-.315,1.9a11.44,11.44,0,0,0-.139,1.7,10.651,10.651,0,0,0,.073,1.362,2.269,2.269,0,0,0,.293.908,1.235,1.235,0,0,0,.608.505,2.8,2.8,0,0,0,1.018.154,0.879,0.879,0,0,0,.388-0.117,3.328,3.328,0,0,0,.447-0.278,3.976,3.976,0,0,0,.4-0.33,0.963,0.963,0,0,0,.219-0.271c-0.009-.137-0.017-0.283-0.021-0.439s-0.008-.313-0.008-0.469a26.646,26.646,0,0,1,.154-2.7q0.154-1.5.491-3.508c0-.019.022-0.139,0.066-0.359s0.1-.507.175-0.864,0.154-.759.242-1.209,0.181-.915.278-1.4,0.2-.962.293-1.436,0.186-.908.264-1.3,0.147-.734.2-1.018,0.1-.473.117-0.571q0.337,0.337.777,0.8t0.908,0.96l0.945,1q0.476,0.505.879,0.945t0.7,0.769l0.432,0.476q0.6,0.673,1.274,1.545t1.348,1.832q0.674,0.959,1.3,1.94t1.142,1.89a8.8,8.8,0,0,0,.616.952,3.684,3.684,0,0,0,.659.689,2.357,2.357,0,0,0,.791.41,3.518,3.518,0,0,0,1.01.132,1.08,1.08,0,0,0,.572-0.161,1.734,1.734,0,0,0,.447-0.389,2.172,2.172,0,0,0,.292-0.468,1,1,0,0,0,.11-0.389q0-.439-0.014-0.747c-0.01-.2-0.022-0.375-0.037-0.512s-0.027-.247-0.037-0.33a2.037,2.037,0,0,1-.014-0.212c0.009-.254.049-0.662,0.117-1.223s0.149-1.2.242-1.919,0.2-1.473.315-2.264,0.227-1.538.329-2.241,0.195-1.325.279-1.867,0.139-.926.168-1.15q0.029-.205.095-0.608t0.147-.9q0.08-.5.175-1.026c0.064-.351.12-0.681,0.169-0.988s0.093-.576.132-0.806,0.063-.378.073-0.447q0.073-.526.19-1.084a5.909,5.909,0,0,0,.118-1.216A1.509,1.509,0,0,0,250.838,101.963Zm20.871-.249q-0.777.088-1.531,0.249t-1.531.41q-0.777.251-1.64,0.572-0.807.308-1.612,0.688t-1.567.82q-0.762.439-1.45,0.916c-0.46.317-.874,0.632-1.246,0.945q-0.791.674-1.655,1.531t-1.684,1.809a17.8,17.8,0,0,0-2.93,4.541,11.046,11.046,0,0,0-.967,4.365,3.827,3.827,0,0,0,.564,2.007,5.507,5.507,0,0,0,1.531,1.633,7.65,7.65,0,0,0,2.263,1.091,9.4,9.4,0,0,0,2.761.4,12.79,12.79,0,0,0,2.615-.242,11.281,11.281,0,0,0,2.139-.666,13.866,13.866,0,0,0,1.9-1q0.908-.572,1.889-1.231-0.145.381-.381,0.96t-0.454,1.171q-0.219.594-.38,1.121a3.022,3.022,0,0,0-.162.82,4.913,4.913,0,0,0,.081.931,1.758,1.758,0,0,0,.293.71,1.406,1.406,0,0,0,.557.454,2.062,2.062,0,0,0,.871.161,2.252,2.252,0,0,0,.842-0.154,2,2,0,0,0,.674-0.432,2.031,2.031,0,0,0,.447-0.644,1.949,1.949,0,0,0,.161-0.791,0.293,0.293,0,0,0-.066-0.176c-0.044-.059-0.09-0.12-0.139-0.183a2.227,2.227,0,0,1-.139-0.2,0.461,0.461,0,0,1-.066-0.242,5.7,5.7,0,0,1,.132-1.018q0.132-.666.344-1.421t0.462-1.5c0.165-.5.322-0.923,0.468-1.275,0.02-.048.081-0.173,0.183-0.373s0.222-.437.359-0.711,0.283-.568.44-0.886,0.3-.613.432-0.886,0.239-.506.322-0.7a1.7,1.7,0,0,0,.125-0.33,1.2,1.2,0,0,0-.242-0.549,3.462,3.462,0,0,0-.579-0.637,3.622,3.622,0,0,0-.8-0.527,2.047,2.047,0,0,0-.916-0.22q-1.83,0-1.831.952a1.379,1.379,0,0,0,.037.271c0.024,0.112.049,0.227,0.073,0.344s0.049,0.235.073,0.352a1.5,1.5,0,0,1,.037.307,1.179,1.179,0,0,1-.256.608,8.537,8.537,0,0,1-.594.762,9.641,9.641,0,0,1-.688.718c-0.234.22-.415,0.378-0.542,0.476a14.121,14.121,0,0,1-1.655,1.025,15.635,15.635,0,0,1-1.868.843,13.754,13.754,0,0,1-1.912.564,8.608,8.608,0,0,1-1.8.2,7.078,7.078,0,0,1-1.07-.1,4.542,4.542,0,0,1-1.171-.344,2.761,2.761,0,0,1-.945-0.681,1.592,1.592,0,0,1-.389-1.106,8.891,8.891,0,0,1,.11-1.384,10.965,10.965,0,0,1,.3-1.348,9.355,9.355,0,0,1,.446-1.223,6.9,6.9,0,0,1,.55-1.011A21.444,21.444,0,0,1,261.1,111a18.824,18.824,0,0,1,2.087-2.021,23.64,23.64,0,0,1,2.285-1.677,16.373,16.373,0,0,1,2.447-1.3,13.221,13.221,0,0,1,2.395-.791,9.135,9.135,0,0,1,1.838-.22,0.806,0.806,0,0,1,.476.162l0.484,0.344a4.614,4.614,0,0,0,.564.344,1.452,1.452,0,0,0,.688.161,1.962,1.962,0,0,0,1.406-.461,1.667,1.667,0,0,0,.484-1.267,2.251,2.251,0,0,0-.242-1.033,2.862,2.862,0,0,0-.652-0.842,3.1,3.1,0,0,0-.93-0.572,2.927,2.927,0,0,0-1.077-.2A14.723,14.723,0,0,0,271.709,101.714Zm29.414,6.087a5.079,5.079,0,0,1-.5,1.047,7.063,7.063,0,0,1-.755.989,7.23,7.23,0,0,1-.945.871,7.96,7.96,0,0,1-.439-1.479,8.376,8.376,0,0,1-.161-1.655,3.757,3.757,0,0,1,.139-1.033,3.306,3.306,0,0,1,.374-0.864,2.021,2.021,0,0,1,.549-0.594,1.127,1.127,0,0,1,.652-0.219,0.881,0.881,0,0,1,.542.175,1.657,1.657,0,0,1,.4.447,2.069,2.069,0,0,1,.249.608,2.873,2.873,0,0,1,.08.659A3.228,3.228,0,0,1,301.123,107.8Zm-4.944,14.018a2.949,2.949,0,0,1-1-.534,2.067,2.067,0,0,1-.586-0.806,2.659,2.659,0,0,1-.19-1.011,3.866,3.866,0,0,1,.212-1.274,5.079,5.079,0,0,1,.586-1.172,6.271,6.271,0,0,1,.879-1.04,8.359,8.359,0,0,1,1.091-.879A28.546,28.546,0,0,0,299,117.989a23.5,23.5,0,0,0,2.307,2.754,7.982,7.982,0,0,1-1.662.893,5.458,5.458,0,0,1-2.059.381A4.5,4.5,0,0,1,296.179,121.819Zm16.348-9.748a6.5,6.5,0,0,0-.733.044c-0.263.029-.554,0.063-0.871,0.1s-0.669.073-1.055,0.1-0.813.044-1.282,0.044a7.746,7.746,0,0,1-1.311-.1,8,8,0,0,1-.959-0.219c-0.274-.083-0.52-0.156-0.74-0.22a2.409,2.409,0,0,0-.666-0.095,1.1,1.1,0,0,0-.44.11,1.628,1.628,0,0,0-.454.3,1.761,1.761,0,0,0-.351.461,1.2,1.2,0,0,0-.147.579,1.89,1.89,0,0,0,.374,1.179,1.911,1.911,0,0,0,1.355.608,3.974,3.974,0,0,0,.527.081c0.176,0.014.356,0.031,0.542,0.051a4.3,4.3,0,0,1-.33.879,10.567,10.567,0,0,1-.564,1.011q-0.323.513-.681,0.981a7.79,7.79,0,0,1-.666.776,12.028,12.028,0,0,1-1.6-1.648q-0.849-1.032-1.685-2.263a4.987,4.987,0,0,1-.454-0.827,1.75,1.75,0,0,1-.161-0.623,0.714,0.714,0,0,1,.1-0.337,1.289,1.289,0,0,1,.374-0.381,18.255,18.255,0,0,0,1.523-1.3,9.344,9.344,0,0,0,1.216-1.414,6.923,6.923,0,0,0,.813-1.553,4.972,4.972,0,0,0,.3-1.736,5.412,5.412,0,0,0-.249-1.589,4.89,4.89,0,0,0-.754-1.494,3.967,3.967,0,0,0-1.289-1.113,3.782,3.782,0,0,0-1.853-.432,5.091,5.091,0,0,0-3.9,1.713,5.561,5.561,0,0,0-1.084,1.868,6.843,6.843,0,0,0-.381,2.307,8.485,8.485,0,0,0,.131,1.56,12.3,12.3,0,0,0,.293,1.231q0.162,0.534.293,0.893a1.759,1.759,0,0,1,.132.55,0.537,0.537,0,0,1-.073.263,0.726,0.726,0,0,1-.264.249,15.535,15.535,0,0,0-1.867,1.385,10.383,10.383,0,0,0-1.524,1.626,7.6,7.6,0,0,0-1.025,1.853,6.036,6.036,0,0,0,.044,4.3,4.966,4.966,0,0,0,1.186,1.728,5.327,5.327,0,0,0,1.853,1.121,6.962,6.962,0,0,0,2.4.395,10.178,10.178,0,0,0,1.911-.183,12.417,12.417,0,0,0,1.861-.5,13.219,13.219,0,0,0,1.706-.747,10.926,10.926,0,0,0,1.436-.894,10.905,10.905,0,0,0,2.527,1.429,7.739,7.739,0,0,0,2.893.534,2.84,2.84,0,0,0,1.318-.293,3.48,3.48,0,0,0,.952-0.695,3.2,3.2,0,0,0,.579-0.821,1.667,1.667,0,0,0,.2-0.652,1.43,1.43,0,0,0-.235-0.835,0.744,0.744,0,0,0-.644-0.337,0.9,0.9,0,0,0-.315.052l-0.323.117a3.746,3.746,0,0,1-.432.124,2.76,2.76,0,0,1-.63.059,4.9,4.9,0,0,1-1.574-.286,5.929,5.929,0,0,1-1.56-.8,9.6,9.6,0,0,0,.886-0.923q0.462-.542.915-1.172t0.872-1.3q0.417-.674.754-1.319a1.131,1.131,0,0,1,.791-0.63,8.436,8.436,0,0,1,.879-0.109,4.984,4.984,0,0,0,1.026-.2,1.516,1.516,0,0,0,.974-0.594,1.848,1.848,0,0,0,.329-1.105,0.925,0.925,0,0,0-1.142-.923h0Zm36.358-.476a7.143,7.143,0,0,1-.389.835,9.427,9.427,0,0,1-.52.849q-0.285.419-.556,0.769t-0.484.6a3.321,3.321,0,0,1-.315.337,5.543,5.543,0,0,1-.827.593,13.693,13.693,0,0,1-1.216.645q-0.7.328-1.553,0.666t-1.824.659q-1.83.615-3.325,1.121a19.2,19.2,0,0,1-2.842.74,2.9,2.9,0,0,1-.1-0.528,6.1,6.1,0,0,1-.029-0.644,13.734,13.734,0,0,1,.109-1.648q0.111-.9.228-1.736,0.043-.381.19-1.2t0.352-1.9q0.2-1.077.446-2.329t0.491-2.513q0.513-.014,1.047-0.065l1.062-.1q0.528-.051,1.018-0.088c0.328-.024.633-0.037,0.916-0.037q1.011,0,1.992.081t1.963,0.242a9.866,9.866,0,0,1,1.582.395,4.731,4.731,0,0,1,1.384.733,3.644,3.644,0,0,1,.982,1.15,3.381,3.381,0,0,1,.373,1.648A2.074,2.074,0,0,1,348.885,111.6Zm3.515-1.949a11.539,11.539,0,0,0-.593-1.53,6.59,6.59,0,0,0-.7-1.2,6.8,6.8,0,0,0-.754-0.857,6.132,6.132,0,0,0-.747-0.607c-0.245-.166-0.469-0.308-0.674-0.425a10.8,10.8,0,0,0-3.047-1.165,16.424,16.424,0,0,0-3.589-.373q-1.334,0-2.673.088t-2.41.087c-0.078,0-.251-0.012-0.52-0.036s-0.569-.054-0.9-0.088-0.664-.063-1-0.088-0.6-.037-0.806-0.037a1.558,1.558,0,0,0-.783.213,2.681,2.681,0,0,0-1.114,1.216,1.706,1.706,0,0,0-.168.7,1.242,1.242,0,0,0,.044.352,0.821,0.821,0,0,0,.139.271,1.6,1.6,0,0,0,.242.249q0.146,0.124.351,0.286c0.127,0.088.227,0.159,0.3,0.212a0.394,0.394,0,0,1,.11.33,2.069,2.069,0,0,1-.044.373c-0.03.152-.064,0.313-0.1,0.484s-0.078.339-.117,0.505-0.073.317-.1,0.454q-0.454,2.124-.739,4.153t-0.667,3.992c-0.02.127-.042,0.268-0.066,0.424s-0.049.313-.073,0.469-0.044.308-.059,0.454-0.022.274-.022,0.381a1.841,1.841,0,0,1-.029.278c-0.02.118-.039,0.235-0.059,0.352s-0.039.232-.058,0.344a1.574,1.574,0,0,0-.029.257,4.534,4.534,0,0,0,.065.644q0.066,0.426.213,1.04a2.287,2.287,0,0,0,.82,1.319,2.359,2.359,0,0,0,1.509.5c0.088,0,.234-0.013.439-0.037a6.671,6.671,0,0,0,.7-0.125q0.389-.087.828-0.227a4.93,4.93,0,0,0,.849-0.358q0.924-.485,1.626-0.77t1.3-.476q0.864-.263,1.868-0.644t2.131-.894q1.113-.511,2.241-1.12a23.515,23.515,0,0,0,2.1-1.267,15.322,15.322,0,0,0,3.516-3.15,5.97,5.97,0,0,0,1.465-3.72A4.372,4.372,0,0,0,352.4,109.646Zm24.174-6.569a1.941,1.941,0,0,0-.374-0.477,1.84,1.84,0,0,0-.5-0.336,1.356,1.356,0,0,0-.557-0.125,5.18,5.18,0,0,0-1.084.11q-0.513.11-1.018,0.264l-1.032.315a9.152,9.152,0,0,1-1.128.263q-1.349.221-2.659,0.315t-2.6.095q-0.689,0-1.267-.014t-0.916-.015a3.12,3.12,0,0,1-.483-0.059q-0.338-.057-0.711-0.131t-0.717-.132a3.4,3.4,0,0,0-.506-0.059,2.365,2.365,0,0,0-.666.117,4.936,4.936,0,0,0-.769.308,5.431,5.431,0,0,0-.7.417,1.6,1.6,0,0,0-.455.447,3.63,3.63,0,0,0-.388.828,2.522,2.522,0,0,0-.124.74,2.043,2.043,0,0,0,.029.307,2,2,0,0,1,.029.293c0,0.079-.007.249-0.022,0.513s-0.036.576-.066,0.937-0.058.747-.087,1.158-0.057.8-.081,1.157-0.046.674-.066,0.937-0.034.43-.044,0.5q-0.073.924-.212,1.722t-0.308,1.6q-0.168.806-.359,1.655t-0.4,1.875q-0.205,1.069-.374,1.838a6.609,6.609,0,0,0-.168,1.4,5.428,5.428,0,0,0,.139,1.341,2.153,2.153,0,0,0,.4.849,1.391,1.391,0,0,0,.659.44,3.115,3.115,0,0,0,.923.124h0.029a3.111,3.111,0,0,0,.63-0.073q0.351-.074.74-0.176c0.258-.068.515-0.139,0.769-0.212a6.609,6.609,0,0,1,.718-0.169q0.351-.074,1.084-0.168l1.7-.22q0.966-.124,2.094-0.256l2.256-.264q1.568-.206,2.871-0.344t2.593-.388a2.151,2.151,0,0,0,.733-0.279,3.018,3.018,0,0,0,.578-0.447,2.367,2.367,0,0,0,.381-0.483,0.842,0.842,0,0,0,.139-0.373,1.9,1.9,0,0,0-.132-0.711,1.768,1.768,0,0,0-.351-0.564,1.622,1.622,0,0,0-.506-0.366,1.4,1.4,0,0,0-.593-0.132,2.329,2.329,0,0,0-.52.059,4.694,4.694,0,0,0-.5.146q-0.249.088-.491,0.183a3.753,3.753,0,0,1-.476.154,7.031,7.031,0,0,1-.842.169c-0.308.043-.615,0.083-0.923,0.117s-0.606.066-.894,0.095-0.534.059-.739,0.088q-0.587.087-1.092,0.146t-1.1.11l-1.333.117q-0.741.066-1.78,0.154-0.4.044-.842,0.081t-0.887.066c-0.293.019-.573,0.034-0.842,0.044s-0.5.014-.71,0.014c0.009-.117.029-0.268,0.058-0.454s0.066-.388.11-0.608,0.093-.451.147-0.7,0.1-.483.153-0.717a17.062,17.062,0,0,0,.308-1.714,12.858,12.858,0,0,1,.278-1.524q0.425-.117.806-0.19a4.415,4.415,0,0,1,.835-0.073q0.278,0,.93-0.03l1.487-.066q0.836-.036,1.765-0.095t1.765-.124q0.836-.066,1.472-0.125a7.552,7.552,0,0,0,.887-0.117q0.277-.059.666-0.154a3.283,3.283,0,0,0,.74-0.278,2.006,2.006,0,0,0,.593-0.461,1.057,1.057,0,0,0,.242-0.718,3.878,3.878,0,0,0-.059-0.681,1.8,1.8,0,0,0-.2-0.586,1.107,1.107,0,0,0-.41-0.411,1.3,1.3,0,0,0-.659-0.153,4.982,4.982,0,0,0-.55.029,3.4,3.4,0,0,0-.5.095,4.507,4.507,0,0,0-.5.169q-0.256.1-.549,0.234a7.162,7.162,0,0,1-.842.132q-0.535.058-1.1,0.1c-0.376.03-.73,0.054-1.062,0.074s-0.576.039-.732,0.058q-0.47.045-1.179,0.095t-1.429.052q-0.5,0-1.032-.015c-0.357-.01-0.667-0.029-0.931-0.059q0.073-.453.118-1.12t0.087-1.384q0.045-.718.081-1.407t0.081-1.172q0.366,0.03.761,0.03h3.033q0.659,0,1.611-.044t2.1-.154q1.149-.11,2.439-0.286t2.637-.439c0.341-.068.632-0.132,0.871-0.191a3.518,3.518,0,0,0,.74-0.278,1.055,1.055,0,0,0,.366-0.3,3.079,3.079,0,0,0,.315-0.462,2.838,2.838,0,0,0,.22-0.49,1.324,1.324,0,0,0,.08-0.388A1.106,1.106,0,0,0,376.574,103.077Zm24.606,11.1a0.774,0.774,0,0,0-.125-0.3,1.052,1.052,0,0,0-.293-0.271,6,6,0,0,0-.534-0.308q-0.307.323-.682,0.7t-0.761.747q-0.389.367-.762,0.7t-0.681.586q-0.79.645-1.765,1.363t-2.066,1.421q-1.091.7-2.27,1.34t-2.351,1.128a16.1,16.1,0,0,1-2.315.776,8.966,8.966,0,0,1-2.182.286,3.676,3.676,0,0,1-1.48-.264,2.517,2.517,0,0,1-.974-0.732,2.9,2.9,0,0,1-.535-1.1,5.57,5.57,0,0,1-.161-1.377,9.336,9.336,0,0,1,.117-1.428,13.769,13.769,0,0,1,.323-1.509q0.2-.755.483-1.487t0.586-1.377a13.577,13.577,0,0,1,1.992-3,20.9,20.9,0,0,1,2.549-2.476,10.18,10.18,0,0,1,1.187-.82,14.776,14.776,0,0,1,1.442-.769,13.53,13.53,0,0,1,1.421-.572,3.748,3.748,0,0,1,1.136-.227,2.195,2.195,0,0,1,.747.132,4.593,4.593,0,0,1-.323.476,5.219,5.219,0,0,1-.483.549,4.521,4.521,0,0,0-.82,1.048,1.771,1.771,0,0,0-.249.7,1.6,1.6,0,0,0,.461,1.171,1.736,1.736,0,0,0,1.3.469,2.082,2.082,0,0,0,1.656-.776q0.1-.132.293-0.4t0.4-.6q0.212-.337.432-0.711c0.146-.249.278-0.49,0.395-0.725a6.238,6.238,0,0,0,.286-0.652,1.494,1.494,0,0,0,.11-0.476,1.661,1.661,0,0,0-.176-0.652,6.508,6.508,0,0,0-.425-0.783,7.118,7.118,0,0,0-.527-0.733,3.044,3.044,0,0,0-.5-0.5,2.728,2.728,0,0,0-1.04-.468,7.512,7.512,0,0,0-1.582-.132,5.17,5.17,0,0,0-1.319.2,15.866,15.866,0,0,0-1.545.505q-0.785.3-1.5,0.645t-1.186.622q-0.66.4-1.392,0.93t-1.45,1.15q-0.717.615-1.362,1.253a14.323,14.323,0,0,0-1.114,1.223,18.6,18.6,0,0,0-1.508,2.212,18.892,18.892,0,0,0-1.223,2.49,16.515,16.515,0,0,0-.813,2.607,11.83,11.83,0,0,0-.293,2.579,9.138,9.138,0,0,0,.388,2.746,5.508,5.508,0,0,0,1.194,2.117,5.308,5.308,0,0,0,2.036,1.355,8.076,8.076,0,0,0,2.915.476,11.044,11.044,0,0,0,2.959-.432,20.607,20.607,0,0,0,3.12-1.157,29.092,29.092,0,0,0,3.083-1.663q1.517-.937,2.864-1.963,1-.762,1.89-1.523a20.467,20.467,0,0,0,1.567-1.473,8.37,8.37,0,0,0,1.07-1.355,2.275,2.275,0,0,0,.395-1.157A2.122,2.122,0,0,0,401.18,114.18Zm12.836-8.393a6.514,6.514,0,0,1,1.552.688,4.373,4.373,0,0,1,1.048.886,2.835,2.835,0,0,1,.527.872,3.616,3.616,0,0,1,.212.879,8.16,8.16,0,0,1,.052.937,9.482,9.482,0,0,1-.286,2.315,11.539,11.539,0,0,1-.681,2.006,15.179,15.179,0,0,1-.989,1.78,14.528,14.528,0,0,1-1.3,1.729,13.911,13.911,0,0,1-1.589,1.545,11.958,11.958,0,0,1-1.824,1.253,9.825,9.825,0,0,1-2,.842,7.507,7.507,0,0,1-2.139.308,2.941,2.941,0,0,1-1.3-.308,3.7,3.7,0,0,1-1.127-.857,4.185,4.185,0,0,1-.8-1.326,4.713,4.713,0,0,1-.3-1.714,9.914,9.914,0,0,1,.234-2.124,14.363,14.363,0,0,1,.623-2.08,13.91,13.91,0,0,1,.9-1.911,14.927,14.927,0,0,1,1.054-1.619q0.617-.806,1.3-1.589a12.179,12.179,0,0,1,1.435-1.407,7.17,7.17,0,0,1,1.59-1,4.181,4.181,0,0,1,1.757-.381A6.963,6.963,0,0,1,414.016,105.787Zm7.06,2.98a5.227,5.227,0,0,0-1.3-3,10.377,10.377,0,0,0-1.662-1.5,5.956,5.956,0,0,0-1.194-.7,9.715,9.715,0,0,0-1.472-.52,12.243,12.243,0,0,0-1.677-.322,14.554,14.554,0,0,0-1.81-.11,8.272,8.272,0,0,0-3.42.732,12.153,12.153,0,0,0-3.032,1.956,16.491,16.491,0,0,0-2.534,2.8,21.228,21.228,0,0,0-1.941,3.259,18.626,18.626,0,0,0-1.238,3.347,12.226,12.226,0,0,0-.432,3.054,6.316,6.316,0,0,0,.227,1.641,8.69,8.69,0,0,0,.63,1.655,8.838,8.838,0,0,0,.981,1.538,7.5,7.5,0,0,0,1.275,1.275,6.1,6.1,0,0,0,1.508.864,4.547,4.547,0,0,0,1.692.322,18,18,0,0,0,3.055-.241,10.586,10.586,0,0,0,2.717-.865,13.95,13.95,0,0,0,2.651-1.67,26.5,26.5,0,0,0,2.842-2.644,15.673,15.673,0,0,0,1.743-2.219,17.985,17.985,0,0,0,1.326-2.41,14.975,14.975,0,0,0,.849-2.358,8.216,8.216,0,0,0,.3-2.065Q421.157,109.581,421.076,108.767ZM448.4,122.779q-0.468-.294-1.179-0.755t-1.56-1.032q-0.894-.617-1.633-1.128l-1.355-.938q-0.615-.425-1.311-0.923t-1.5-1.054q-0.541-.366-1.011-0.7l-0.937-.673a26.956,26.956,0,0,0,2.71-1.678,10.959,10.959,0,0,0,2.183-2.043,4.622,4.622,0,0,0,1.127-2.886,4.714,4.714,0,0,0-1.582-3.677,7.391,7.391,0,0,0-1.626-1.127,9.435,9.435,0,0,0-1.992-.748,17.306,17.306,0,0,0-4.292-.527q-0.645,0-1.465.081t-1.728.212q-0.952.147-1.743,0.308t-1.363.337c-0.341.107-.686,0.229-1.032,0.366s-0.691.288-1.033,0.454a1.6,1.6,0,0,0-1.062,2.454,1.18,1.18,0,0,0,1.033.373,2.68,2.68,0,0,0,.439-0.066q0.322-.066.791-0.2,0.088,0.835.125,1.6t0.036,1.473a19.608,19.608,0,0,1-.117,2.036q-0.117,1.113-.307,2.314-0.06.4-.1,0.7l-0.081.557c-0.024.171-.051,0.334-0.08,0.49s-0.069.323-.117,0.5c-0.079.4-.149,0.8-0.213,1.209s-0.119.828-.168,1.267a13.2,13.2,0,0,0-.088,1.553q0,0.557.022,1a5.2,5.2,0,0,0,.095.791,2.112,2.112,0,0,0,.747,1.23,2.5,2.5,0,0,0,1.729.5,1.481,1.481,0,0,0,.5-0.095,2.752,2.752,0,0,0,.52-0.256,3.565,3.565,0,0,0,.483-0.366,2.118,2.118,0,0,0,.374-0.44,6.863,6.863,0,0,1-.418-0.791,4.6,4.6,0,0,1-.263-0.769,6.1,6.1,0,0,1-.14-0.8,8.217,8.217,0,0,1-.044-0.865c0-.331.013-0.683,0.037-1.054s0.061-.752.11-1.143q0.073-.615.19-1.413t0.293-1.839q0.22-1.215.352-1.977a14.14,14.14,0,0,0,.176-1.553q0.029-.381.036-0.776t0.008-.835c0-.254-0.013-0.54-0.037-0.857a7.18,7.18,0,0,0-.168-1.048c-0.049-.244-0.1-0.468-0.162-0.674a5.029,5.029,0,0,0-.2-0.585c0.176-.039.315-0.069,0.418-0.088l0.271-.052q0.117-.021.234-0.036c0.078-.01.186-0.024,0.322-0.044,0.293-.049.6-0.09,0.916-0.125s0.642-.07.974-0.11c0.361-.038.689-0.068,0.982-0.087s0.537-.03.732-0.03a7.145,7.145,0,0,1,1.992.293,6.979,6.979,0,0,1,1.091.425,5.941,5.941,0,0,1,1.07.659,3.81,3.81,0,0,1,.813.85,1.712,1.712,0,0,1,.322.981,1.649,1.649,0,0,1-.154.681,2.316,2.316,0,0,1-.49.682q-0.426.424-.857,0.791a10.46,10.46,0,0,1-.887.673q-0.513.337-1.018,0.645t-0.974.542c-0.215.108-.437,0.222-0.666,0.344s-0.469.235-.718,0.337a5.778,5.778,0,0,1-.769.256,3.227,3.227,0,0,1-.82.1,3,3,0,0,0-.337.037c-0.079.014-.14,0.024-0.183,0.029a0.928,0.928,0,0,0-.125.022l-0.176.044a1.444,1.444,0,0,0-.718.5,1.418,1.418,0,0,0-.249.864,1.989,1.989,0,0,0,.894,1.714l0.608-.044,0.366-.022c0.093-.005.173-0.007,0.242-0.007h0.2c0.3,0,.51,0,0.622.007a1.011,1.011,0,0,1,.345.081q0.087,0.044.717,0.52t1.685,1.311q1.143,0.907,1.831,1.443t0.923,0.71q0.966,0.747,1.714,1.282t1.23,0.857a11.135,11.135,0,0,0,1.831,1.018,4.414,4.414,0,0,0,1.729.359,3.312,3.312,0,0,0,.754-0.088,2.669,2.669,0,0,0,.667-0.249,1.924,1.924,0,0,0,.659-0.528,1.188,1.188,0,0,0,.249-0.688Z"/>
  <path id="UNIQUE" class="cls-1" d="M205.962,46.467a3,3,0,0,1,1.464-.762V44.767H195.649V45.7a3.007,3.007,0,0,1,1.465.762,2.037,2.037,0,0,1,.41,1.377V67.795a24.876,24.876,0,0,1-.381,5.112,5.981,5.981,0,0,1-1.406,2.769q-2.812,2.988-9.639,2.988-6.8,0-9.609-2.988a5.84,5.84,0,0,1-1.436-2.769,24.876,24.876,0,0,1-.381-5.112V47.843a2.071,2.071,0,0,1,.418-1.392,2.812,2.812,0,0,1,1.458-.747V44.767H164.067V45.7a3.007,3.007,0,0,1,1.465.762,2.037,2.037,0,0,1,.41,1.377V70.256a21.209,21.209,0,0,0,1.113,7.266,9.393,9.393,0,0,0,4.1,4.863q5.069,3.076,14.619,3.076,13.212,0,17.432-5.684,2.343-3.164,2.343-9.521V47.843A2.032,2.032,0,0,1,205.962,46.467ZM245.8,80.51a4.325,4.325,0,0,1,1.436,2.051A1.28,1.28,0,0,1,246,83.82v0.938h12.6V83.82a3,3,0,0,1-1.465-.762,2.031,2.031,0,0,1-.41-1.377V47.814a1.983,1.983,0,0,1,.41-1.348A3,3,0,0,1,258.6,45.7V44.767H246.853V45.7a3.007,3.007,0,0,1,1.465.762,1.988,1.988,0,0,1,.41,1.348V71.545L226.667,48.605a2.381,2.381,0,0,1-.82-1.553,1.382,1.382,0,0,1,1.26-1.348V44.767H213.513V45.7a3.007,3.007,0,0,1,1.465.762,1.988,1.988,0,0,1,.41,1.348V81.681a2.036,2.036,0,0,1-.41,1.377,3,3,0,0,1-1.465.762v0.938h11.748V83.82a3,3,0,0,1-1.465-.762,2.036,2.036,0,0,1-.41-1.377V57.365Zm21.175,2.549a3,3,0,0,1-1.465.762v0.938h12.481V83.82a2.84,2.84,0,0,1-1.451-.747,2.045,2.045,0,0,1-.424-1.392V47.814a2.042,2.042,0,0,1,.41-1.362,2.769,2.769,0,0,1,1.465-.747V44.767H265.508V45.7a3.007,3.007,0,0,1,1.465.762,1.988,1.988,0,0,1,.41,1.348V81.681A2.036,2.036,0,0,1,266.973,83.058Zm62.952-18.311a20.8,20.8,0,0,0-1.5-7.822,19.755,19.755,0,0,0-4.984-7.207q-6.1-5.654-16.505-5.654-13.866,0-19.9,9.727a20.2,20.2,0,0,0-3.107,10.957,20.776,20.776,0,0,0,1.5,7.822,19.681,19.681,0,0,0,4.983,7.236q6.128,5.655,16.358,5.654A28.139,28.139,0,0,0,317.319,83.7l3.453,4.219a6.8,6.8,0,0,1,1.638,2.49,3.281,3.281,0,0,1-.585,1.436l0.644,0.7,8.569-7.808-0.616-.7a4.214,4.214,0,0,1-1.348.38,1.506,1.506,0,0,1-.865-0.248,12.145,12.145,0,0,1-1.421-1.359L323.68,79.6a19.846,19.846,0,0,0,6.245-14.854h0ZM313.14,70.521a8.726,8.726,0,0,0-3.86-.939,7.641,7.641,0,0,0-4.814,1.641v0.821a13.066,13.066,0,0,1,7.343,4.981q0.234,0.293.558,0.7a16.029,16.029,0,0,1-5.4.937,13.928,13.928,0,0,1-9.62-3.395,13.378,13.378,0,0,1-4.516-10.507,13.435,13.435,0,0,1,4.516-10.507,15.2,15.2,0,0,1,19.151,0,13.347,13.347,0,0,1,4.517,10.477,14,14,0,0,1-3.109,9.043A26.613,26.613,0,0,0,313.14,70.521ZM377,46.467a3,3,0,0,1,1.465-.762V44.767H366.685V45.7a3,3,0,0,1,1.465.762,2.032,2.032,0,0,1,.41,1.377V67.795a24.964,24.964,0,0,1-.38,5.112,5.982,5.982,0,0,1-1.407,2.769q-2.812,2.988-9.638,2.988-6.8,0-9.61-2.988a5.83,5.83,0,0,1-1.435-2.769,24.876,24.876,0,0,1-.381-5.112V47.843a2.066,2.066,0,0,1,.418-1.392,2.809,2.809,0,0,1,1.457-.747V44.767H335.1V45.7a3,3,0,0,1,1.465.762,2.037,2.037,0,0,1,.41,1.377V70.256a21.183,21.183,0,0,0,1.114,7.266,9.386,9.386,0,0,0,4.1,4.863q5.069,3.076,14.619,3.076,13.213,0,17.432-5.684,2.343-3.164,2.344-9.521V47.843A2.032,2.032,0,0,1,377,46.467Zm34.387,20.742a1.943,1.943,0,0,1,1.348.425,3.1,3.1,0,0,1,.762,1.45h0.937V58.976H413.5a3.009,3.009,0,0,1-.762,1.465,1.986,1.986,0,0,1-1.348.41h-16.23V51.359h25.019a1.968,1.968,0,0,1,1.348.416,3.047,3.047,0,0,1,.762,1.459h0.937V42.892h-0.937a3.054,3.054,0,0,1-.762,1.457,1.962,1.962,0,0,1-1.348.418H384.549V45.7a3,3,0,0,1,1.465.762,2.032,2.032,0,0,1,.41,1.377V81.681a2.031,2.031,0,0,1-.41,1.377,2.991,2.991,0,0,1-1.465.762v0.938h36.329a1.981,1.981,0,0,1,1.347.41,3.008,3.008,0,0,1,.762,1.465h0.937V76.291h-0.937a3.009,3.009,0,0,1-.762,1.465,1.981,1.981,0,0,1-1.347.41H395.155V67.209h16.23Z"/>
  <path id="OK_-_Home02_03_1" data-name="OK - Home02 03 1" class="cls-2" d="M151.051,51.71l-8.3,5.707-7.508-5.163V78.081c0,3.821-4.5,6.918-10.061,6.918H112.02V58.484H85.986V85H72.866C67.309,85,62.8,81.9,62.8,78.081V52.057l-7.676,5.278L46.948,51.71c-3.929-2.7-3.929-7.082,0-9.784L62.322,31.355V10.969H80.5v7.888l11.389-7.831a13.5,13.5,0,0,1,14.228,0l44.938,30.9C154.98,44.628,154.98,49.008,151.051,51.71Z"/>
</svg>
